<svg id="Layer_1" xmlns="http://www.w3.org/2000/svg" viewBox="0 0 161.3 150.7"><style>.st0{fill:#f5e3b1}.st1{fill:#f7eed7}.st2{fill:#f2d9c7}.st3{fill:#ebc19a}.st4{fill:#5281b9}.st5{fill:#e5f6d7}.st6{fill:#cfe8b3}.st7{fill:#f3ead3}.st8{fill:#c4e09f}.st9{fill:#e6ebf7}.st10{fill:#b7dcf8}</style><circle class="st0" cx="54.5" cy="14.8" r="2.5"/><path class="st0" d="M71.5 2.5l1.1 2c.1.2.2.3.4.4L75 6c.7.4.7 1.4 0 1.8l-2 1.1c-.2.1-.3.2-.4.4l-1.1 2c-.4.7-1.4.7-1.8 0l-1.1-2c-.1-.2-.2-.3-.4-.4l-2-1.1c-.7-.4-.7-1.4 0-1.8l2-1.1c.2-.1.3-.2.4-.4l1.1-2c.4-.8 1.4-.8 1.8 0z"/><circle class="st0" cx="157" cy="57.3" r="2.5"/><path class="st0" d="M152.5 68.9l1.1 2c.1.2.2.3.4.4l2 1.1c.7.4.7 1.4 0 1.8l-2 1.1c-.2.1-.3.2-.4.4l-1.1 2c-.4.7-1.4.7-1.8 0l-1.1-2c-.1-.2-.2-.3-.4-.4l-2-1.1c-.7-.4-.7-1.4 0-1.8l2-1.1c.2-.1.3-.2.4-.4l1.1-2c.4-.7 1.4-.7 1.8 0z"/><path class="st1" d="M141.9 40.1c-4.5-.3-9.1-2.6-10.8-7.1-1.2-3.1-1-6.6 0-9.7.8-2.7 1.1-5.1-.3-7.6-1.7-3.1-5.4-4.5-8.8-3.6-2.2.6-3.7 2.3-5.6 3.4-5.9 3.3-12.9 1.1-16.1-4.9-1.2-2.3-1.9-4.6-4.5-5.8-2.9-1.4-6.5-.9-8.8 1.3-2.2 2-2.2 4.5-2.8 7.2-.7 3.1-2.5 6.1-5.3 7.6-3.1 1.7-7 1.7-10.4.8-2.7-.8-5.2-1.6-7.9-.1-3.3 1.8-4.9 5.9-3.6 9.4.7 1.9 2.2 3.4 3.2 5.2 1.5 3 1.7 5.9.9 8.6-1 3-3.3 5.7-6.4 7.5-1.9 1.1-3.7 1.8-5 3.8-2 3.2-1.4 7.4 1.4 9.9 1.7 1.6 3.8 1.8 5.9 2.2 2.4.4 4.8 1.4 6.6 3 2.8 2.5 3.7 6.3 3.3 9.9-.2 2.4-1.5 4.7-1.6 7.1-.1 4.1 3 7.3 6.9 7.9 3.1.5 5-.8 7.4-2.4 5.8-4 12.5-2.7 16.6 3 1 1.4 1.6 3.1 2.6 4.5 2.3 3.1 6.6 4.1 9.9 2.2 4.9-2.7 3.6-8.3 6.1-12.6 1.9-3.2 5.2-4.9 8.9-5.1 2.9-.1 4.9 1 7.7 1.6 3.8.7 7.9-1.8 9-5.5 1-3.1-.3-5.8-2.2-8.2-4.2-5.3-3.2-12 1.9-16.2 1.3-1 2.6-1.7 4-2.5 3-1.6 4.9-4.8 4.4-8.3-.3-3.4-3.2-6.1-6.6-6.5z"/><path class="st2" d="M49 46.9l53.5 57.1c2.6 2.8 2.5 7.3-.3 9.9l-35 32.8c-2.8 2.6-7.3 2.5-9.9-.3L3.7 89.3c-2.6-2.8-2.5-7.3.3-9.9l35-32.8c2.9-2.7 7.3-2.5 10 .3z"/><path transform="rotate(-43.128 45.877 103.132)" class="st3" d="M39.3 57.2h13.1V149H39.3z"/><path class="st3" d="M69.6 141c-.7.3-1.4.6-2.1 1-.2-.2-.5-.3-.9-.3h-.7c-.2 0-.5.1-.6.2-.9-.4-1.9-.7-2.9-1-1.6-2.7-3.1-5.4-4.4-8.2.1-.3.2-.6 0-1-1.8-5.2-3.7-10.4-5.7-15.6l-2.1-5.7c-.1-.3-.4-.6-.6-.7-.9-2.8-1.7-5.5-2.6-8.3l-.3-.6-2.1-6.9c-.1-.4-.4-.7-.7-.9-.7-2.6-1.5-5.2-2.1-7.8-.2-.6-.6-.9-1-1-1-3.9-2.2-7.7-3.7-11.4-.1-.4-.4-.6-.7-.8l-1.2-3.6c-.1-.2-.1-.3-.2-.4-.3-1-.6-2-1.1-2.9-.4-1.2-.7-2.4-1.1-3.5.6-1.7 1-3.5 1.6-5.2.4-.3.7-.7 1.1-1 .1 0 .1-.1.2-.1h.1c.1-.1.2-.1.3-.2.8-.3 1.6-.6 2.4-1.1.1-.1.2-.1.4-.2 0 0 .1 0 .1-.1.6-.3 1.3-.6 1.9-.9.6-.3 1.2-.6 1.8-.8h.5c1.1-.2 2.2-.4 3.2-.7.3-.1 1-.5 1.4-.7.4 0 .8.1 1.2.1 1.5.1 2-2 .8-2.8-.4-.3-.8-.4-1.1-.4-.1-.1-.1-.2-.2-.3-1.3-1.4-2.8-2.1-4.7-2.2-.4 0-.8.2-1 .4-1.8-.2-3.4.3-3.9 2.2-.1 0-.1.1-.2.1-.9.4-1.7.8-2.6 1.4-.6.4-.8 1-.7 1.5-.2.3-.5.6-.7.9v.1c-1.6.8-3 1.7-4.1 3.2-.1.1-.1.2-.2.3-.3-.1-.3-.1-.4-.1-.6-.3-1.4-.2-2 .5-1.3 1.8-.8 4.9-.6 6.9.3 2.8 1 5.5 1.9 8.1.1.3.3.6.6.7 6.5 17.3 13.2 34.4 20.3 51.5 1.1 3.3 2.3 6.7 3.5 10v.1c0 .2.1.4.2.5 1 2.6 1.9 5.2 3 7.8.4 1.3.9 2.6 1.5 3.9.1.1.1.2.2.3.3 1 .9 1.8 1.7 2.6.4.3.8.4 1.2.4.3.3.7.5 1.1.4 1.6-.1 3-1 3.6-2.3 1.4-.9 2.7-1.9 4.2-2.5 1.8-.7 1-3.6-.8-2.9z"/><path class="st4" d="M49.7 46.2c-1.6-1.8-4.3-2.9-7.1-2.5-1.4.2-2.8.8-3.9 1.8-1.1.9-1.9 1.8-3 2.7-3.9 3.6-8 7.4-11.7 11.1-4 3.9-8 7.7-12 11.5l-6 5.7-1.5 1.4c-.5.5-1 .9-1.5 1.5-1 1.2-1.7 2.7-1.8 4.2-.2 2.1.4 4.3 1.8 5.9 1.4 1.5 2.7 2.8 4 4.2 2.7 2.8 5.3 5.6 7.8 8.4 6.8 7.6 13 13.5 19.3 20.5 4.3 4.7 8.8 9 13.1 13.7 2.2 2.5 4.5 5 6.7 7.4l1.7 1.9c.6.6 1.1 1.2 1.8 1.9 1.4 1.2 3.2 1.9 5.1 1.9 1.2 0 2.5-.3 3.5-.9.5-.3 1.1-.6 1.5-1l1.2-1.2 4.8-4.6c3.2-3.1 6.4-6.1 9.7-9.2 2.3-2.1 4.4-4.3 6.7-6.4 1-.9 4.9-4.4 9.1-8.3 1.1-1 2.2-2 3.2-2.9.5-.5 1.1-1.1 1.5-1.7.5-.6.8-1.3 1-2 .4-1.4.4-2.8.1-4-.3-1.2-.9-2.2-1.4-2.9-.5-.6-1-1.1-1.5-1.6l-1.5-1.6c-1-1-2-2.1-3-3.2-1.7-2-10.2-10.9-12.7-13.7-5.5-6.2-11.4-12.3-17-18.4-3.1-3.4-6.2-6.8-9.3-10.3-1-1.1-2.2-2.3-3.2-3.4-1.1-1.3-3-3.3-5.5-5.9l-1.3 1.2c1.8 1.9 2.8 3 3.6 3.9 4.5 4.6 8.5 9.1 12.9 13.7 7 7.3 13.9 15 20.9 22.4 2.8 3 5.6 6 8.5 9l4.2 4.5 2.1 2.3 1.1 1.1c.3.4.6.7.8 1.1 1 1.5 1.2 3.5.6 5.1-.3.8-.8 1.6-1.4 2.2-.6.6-1.5 1.4-2.2 2.1-3 2.8-6.1 5.6-9.1 8.4-4.3 4-8.6 8.1-12.8 12.2l-6.4 6.2-3.2 3.1c-.5.5-1.1 1.1-1.6 1.5-.5.4-1.1.8-1.7 1-1.4.6-3 .6-4.4.1-.7-.3-1.3-.6-1.9-1.1-.5-.5-1.1-1.2-1.7-1.8-2.3-2.5-4.6-5-6.8-7.5-3.5-3.8-7.2-7.4-10.6-11.2-7.1-7.8-14.3-15.4-21.6-23.1-3.2-3.4-6.4-6.8-9.7-10.2l-2.5-2.6-1.2-1.3c-.4-.4-.7-.8-.9-1.3-1-1.9-1-4.3.2-6.2.2-.4.6-.8.9-1.1.3-.4.8-.7 1.1-1.1l2.3-2.2c1.6-1.5 3.1-2.9 4.7-4.4 3.1-2.9 6.3-5.8 9.4-8.8 4-3.8 7.9-7.3 11.8-10.9 1.9-1.8 3.9-3.6 5.9-5.4 1.7-1.6 4.4-2.1 6.7-1.2.3.1.8.4 1.3.7.2.2.4.3.6.5l.2.2 1.2-1.1z"/><path class="st4" d="M18.9 64.7c-2.4 2.2-5 4.8-7.5 7.2-.4.4-.9.9-2.2 2.1 1.7 1.8 4.3 4.5 7.4 7.8 3 3.2 6.5 6.9 10 10.6 6.9 7.4 13.9 15 17.4 18.7 9.4 10 18.9 20.3 28.5 30.5 3.4-3.2 6.8-6.4 10.2-9.5-3.8-4-7.5-8.1-11.3-12-9-9.7-17.9-19.2-26.8-28.8-2.9-3.1-6.2-6.6-9.1-9.7-3.4-3.7-8.8-9.3-15.8-16.8l-.8.7c5 5.4 8 8.5 10.3 11 12.5 13.4 24.2 25.8 36.6 39.1 5.1 5.5 10.3 11 15.5 16.5-2.9 2.7-5.9 5.5-8.8 8.2-11.4-12.2-22.9-24.5-34.3-36.6-9.2-9.8-18.7-19.9-27.8-29.6 3.2-3 6.2-5.8 9.2-8.6l-.7-.8z"/><path class="st3" d="M68.3 101.4l16.4 17.5c.6.6.5 1.5-.1 2.1l-1.5 1.4c-.6.6-1.5.5-2.1-.1l-16.4-17.5c-.6-.6-.5-1.5.1-2.1l1.5-1.4c.6-.5 1.6-.5 2.1.1zM53.3 85.4l10.4 11.1c.6.6.5 1.5-.1 2.1l-1.5 1.4c-.6.6-1.5.5-2.1-.1l-10.3-11c-.6-.6-.5-1.5.1-2.1l1.5-1.4c.5-.6 1.5-.6 2 0zM66.5 86.2l24.9 26.5c.6.6.5 1.5-.1 2.1l-1.5 1.4c-.6.6-1.5.5-2.1-.1L62.8 89.6c-.6-.6-.5-1.5.1-2.1l1.5-1.4c.6-.5 1.5-.5 2.1.1z"/><path class="st5" d="M92.2 42.9l26.1 73.8c1.3 3.6-.6 7.6-4.3 8.9l-45.2 16c-3.6 1.3-7.6-.6-8.9-4.3L33.8 63.5c-1.3-3.6.6-7.6 4.3-8.9l45.2-16c3.6-1.3 7.6.6 8.9 4.3z"/><path class="st6" d="M88.1 100.6l8 22.6c.3.8-.1 1.6-.9 1.9l-1.9.7c-.8.3-1.6-.1-1.9-.9l-8-22.6c-.3-.8.1-1.6.9-1.9l1.9-.7c.7-.3 1.6.1 1.9.9z"/><path class="st7" d="M92.7 126c-.2 0-.5-.1-.7-.2-.4-.2-.7-.5-.8-.9l-8-22.6c-.3-.9.1-1.8 1-2.1l1.9-.7c.4-.1.9-.1 1.2.1.4.2.7.5.8.9l8 22.6c.3.9-.1 1.8-1 2.1l-1.9.7c-.1 0-.3.1-.5.1zm-6-26.3c-.1 0-.3 0-.4.1l-1.9.7c-.7.2-1.1 1-.8 1.7l8 22.6c.2.7 1 1.1 1.7.8l1.9-.7c.7-.2 1.1-1 .8-1.7l-8-22.6c-.1-.3-.4-.6-.7-.8-.2 0-.4-.1-.6-.1z"/><path transform="rotate(-19.49 66.825 93.112)" class="st6" d="M60.3 47.2h13.1V139H60.3z"/><path class="st8" d="M91.9 42.6c-.6-.7-1.2-1.3-1.8-2-.3-.3-.6-.4-.9-.5-.7-.5-1.5-1-2.4-1.3-.3-.1-.7-.1-1 .1-2.7-.4-6.3 1-8.5 2.2l-.1.1c-.1.1-.3.1-.4.2-.8.1-1.6.3-2.3.4-1.9.3-3.6.8-5.3 1.7-2 .2-3.3.6-4.9 1.8 0 0 0 .1-.1.1-.7-.9-2.6-.6-2.7.9-1.1 18.9-.4 37.7 1.8 56.5-.1 9.3.3 18.6 1.2 27.9 0 .1 0 .3.1.4.4 4.5 4.1 11.1 9.3 8.5 1.2-.6.9-2.5-.4-2.7-3.7-.9-4-3-4.3-5.3 0-.4 0-.8-.1-1.2-.1-2.8-.2-5.5-.3-8.3.3-4.5.2-9-.4-13.5.1-3.1.1-6.3 0-9.4v-5.1c.2-.2.4-.5.4-.9-.2-5-.3-10.1-.6-15.1 0-3.4 0-6.8-.1-10.2 0-.2 0-.3-.1-.5.2-5.2.5-10.4.9-15.6 0-.3 0-.6-.2-.8.3-.8.6-1.6 1-2.4 1.1-.8 2.2-1.6 3.4-2.3.4-.2.6-.5.7-.9.1 0 .2-.1.3-.1H75.8c.9-.1 1.8-.1 2.7-.2 1.2-.1 2.4-.1 3.5-.2.3.3.7.4 1.3.3 1-.2 2-.3 2.9-.3 1.1 0 2.2.3 3.2.7.4.1.8.1 1.1-.1.6 0 1.1-.3 1.4-.9.5-.4.6-1.4 0-2z"/><path class="st4" d="M93.1 42.5c-.7-2.2-2.8-4.4-5.5-5.1-1.4-.4-2.9-.4-4.3 0-1.3.4-2.5.8-3.8 1.3-5 1.7-10.3 3.6-15.2 5.5-5.2 2-10.4 3.9-15.6 5.7-2.6.9-5.2 1.8-7.8 2.8l-2 .7c-.7.2-1.3.4-2 .8-1.4.7-2.6 1.8-3.4 3.1-1.1 1.8-1.3 4.1-.7 6.1.7 1.9 1.3 3.6 2 5.4 1.3 3.6 2.6 7.2 3.8 10.8 3.2 9.7 6.5 17.5 9.5 26.5 2 6 4.4 11.8 6.5 17.8 1.1 3.2 2.1 6.3 3.2 9.5l.8 2.4c.3.8.5 1.6.9 2.4.8 1.7 2.2 3 3.9 3.8 1.1.5 2.4.7 3.6.6.6 0 1.2-.2 1.8-.4.6-.2 1.1-.4 1.6-.6l6.2-2.3c4.2-1.5 8.3-3.1 12.5-4.5 2.9-1 5.8-2.2 8.7-3.2 1.2-.4 6.2-2.1 11.7-4 1.4-.5 2.8-.9 4.1-1.4.7-.2 1.5-.5 2.1-.9.7-.4 1.2-.9 1.7-1.5 1-1.1 1.5-2.4 1.7-3.7.2-1.2.1-2.3-.1-3.2-.2-.8-.5-1.4-.8-2.1l-.8-2c-.5-1.4-1-2.7-1.4-4.1-.8-2.5-5-14-6.2-17.7-2.6-7.8-5.5-15.7-8.2-23.4-1.5-4.4-3-8.7-4.4-13.2-.5-1.4-1.1-3-1.6-4.4-.3-1.5-1.2-4.1-2.5-7.5l-1.7.6c.9 2.4 1.3 3.9 1.8 5 2.3 6 4.1 11.7 6.3 17.8 3.5 9.5 6.7 19.4 10.2 28.9 1.4 3.9 2.8 7.8 4.1 11.7l2 5.8 1 2.9.5 1.5c.2.5.3.9.3 1.3.3 1.8-.3 3.6-1.5 5-.6.7-1.3 1.2-2.2 1.5-.9.3-1.9.7-2.9 1-3.9 1.3-7.8 2.7-11.7 4-5.6 1.9-11.1 4-16.7 6.1l-8.3 3.1-4.2 1.5c-.7.2-1.4.5-2.1.7-.6.2-1.3.3-1.9.2-1.5-.1-3-.7-4-1.7-.5-.5-1-1.1-1.3-1.8-.3-.6-.5-1.5-.8-2.3-1.1-3.2-2.2-6.4-3.2-9.6-1.7-4.9-3.6-9.7-5.2-14.6-3.4-10-7-19.8-10.5-29.8-1.6-4.4-3.1-8.8-4.8-13.2L35 64.7l-.6-1.7c-.2-.5-.3-1-.3-1.6-.1-1.9.9-4.2 2.7-5.4.4-.3.8-.5 1.3-.7l1.5-.6 3-1.1c2-.7 4-1.4 6.1-2.1 4-1.4 8.1-2.8 12.1-4.3C66 45.4 71 43.7 76 42c2.5-.9 5-1.7 7.5-2.6 2.2-.8 4.9-.2 6.6 1.6.2.2.6.7.9 1.2.1.2.3.5.3.7.1.2.1.3.1.3l1.7-.7z"/><path class="st4" d="M57.5 47.1c-3.1 1.1-6.5 2.4-9.8 3.6-.5.2-1.2.4-2.9 1.1.8 2.3 2.1 5.9 3.7 10.2 1.5 4.1 3.2 8.9 4.9 13.7 3.4 9.6 6.8 19.3 8.5 24.1 4.6 13 9.2 26.2 13.9 39.4 4.4-1.5 8.8-3.1 13.2-4.7-1.8-5.2-3.7-10.4-5.5-15.5-4.3-12.4-8.6-24.8-13-37.2-1.4-4-3-8.5-4.4-12.6-1.7-4.7-4.3-12.1-7.7-21.7l-1 .3c2.4 6.9 3.9 11 5 14.2 6.1 17.3 11.8 33.3 17.9 50.5 2.5 7.1 5 14.2 7.6 21.3-3.8 1.3-7.6 2.7-11.4 4-5.6-15.8-11.1-31.6-16.7-47.3-4.7-12.7-9.4-25.6-13.8-38.2 4.1-1.4 8-2.8 11.9-4.2l-.4-1z"/><path class="st6" d="M80.8 79.9l5.1 14.3c.3.8-.1 1.6-.9 1.9l-2 .7c-.8.3-1.6-.1-1.9-.9L76 81.6c-.3-.8.1-1.6.9-1.9l1.9-.7c.8-.3 1.7.1 2 .9z"/><path class="st7" d="M82.5 97c-.2 0-.5-.1-.7-.2-.4-.2-.7-.5-.8-.9l-5.1-14.3c-.3-.9.1-1.8 1-2.1l1.9-.7c.9-.3 1.8.1 2.1 1L86 94.2c.1.4.1.9-.1 1.2-.2.4-.5.7-.9.8l-1.9.7c-.2.1-.4.1-.6.1zm-3.2-18c-.1 0-.3 0-.4.1l-1.9.7c-.7.2-1.1 1-.8 1.7l5.1 14.3c.1.3.4.6.7.8.3.2.7.2 1 .1l1.9-.7c.3-.1.6-.4.8-.7.2-.3.2-.7.1-1L80.7 80c-.3-.6-.8-1-1.4-1z"/><g><path class="st6" d="M92.5 85.8l12.1 34.3c.3.8-.1 1.6-.9 1.9l-1.9.7c-.8.3-1.6-.1-1.9-.9L87.8 87.5c-.3-.8.1-1.6.9-1.9l1.9-.7c.8-.2 1.6.2 1.9.9z"/><path class="st7" d="M101.3 122.9c-.2 0-.5-.1-.7-.2-.4-.2-.7-.5-.8-.9L87.6 87.6c-.3-.9.1-1.8 1-2.1l1.9-.7c.4-.1.9-.1 1.2.1.4.2.7.5.8.9l12.1 34.3c.3.9-.1 1.8-1 2.1l-1.9.7h-.4zM91.1 85c-.1 0-.3 0-.4.1l-1.9.7c-.7.2-1.1 1-.8 1.7l12.1 34.3c.1.3.4.6.7.8.3.2.7.2 1 .1l1.9-.7c.7-.2 1.1-1 .8-1.7L92.3 85.9c-.1-.3-.4-.6-.7-.8-.1 0-.3-.1-.5-.1z"/></g><g><path class="st9" d="M130.7 52.5l.4 78.3c0 3.8-3.1 7-7 7l-48 .3c-3.8 0-7-3.1-7-7l-.4-78.3c0-3.8 3.1-7 7-7l48-.3c3.8 0 6.9 3.1 7 7z"/><path class="st4" d="M131.6 52.5c0-2.4-1.2-5-3.5-6.7-1.2-.8-2.6-1.3-4.1-1.4h-4c-5.3 0-10.9 0-16.1.2-5.6.2-11.1.2-16.6.3H76.9c-.7 0-1.4 0-2.2.1-1.5.2-3 .8-4.2 1.9-1.6 1.4-2.6 3.5-2.6 5.6 0 2 .1 3.9.1 5.8.1 3.8.1 7.7.1 11.5-.2 10.2.4 18.7.2 28.2-.1 6.4.3 12.6.3 19 0 3.3-.1 6.7-.1 10v2.5c0 .8-.1 1.6 0 2.6.2 1.8 1.1 3.6 2.4 4.8.9.8 2 1.5 3.2 1.8.6.2 1.2.2 1.8.3h1.7l6.7-.1c4.4-.1 8.9-.2 13.3-.1 3.1 0 6.2-.2 9.3-.2 1.3 0 6.6.1 12.4.1h4.4c.7 0 1.5 0 2.3-.2.8-.2 1.5-.5 2.1-.8 1.3-.7 2.2-1.8 2.8-2.9.6-1.1.9-2.2.9-3.1v-2.2l-.1-2.2v-4.4c.1-2.6-.1-14.9 0-18.7.1-8.2 0-16.6 0-24.8 0-4.6.1-9.2.2-13.9v-4.7c-.2-2-.2-4.7-.3-8.3h-1.8v5.3c.2 6.4 0 12.4.1 18.8.2 10.2 0 20.5.1 30.7 0 4.1.1 8.2.1 12.4v10.8c0 .5 0 .9-.1 1.4-.3 1.8-1.5 3.3-3.1 4.2-.8.4-1.7.7-2.5.7H109c-5.9 0-11.8.1-17.7.3l-8.9.2-4.4.1h-2.2c-.7 0-1.3-.2-1.9-.4-1.4-.5-2.6-1.6-3.2-2.9-.3-.7-.6-1.4-.6-2.1-.1-.7 0-1.6 0-2.4 0-3.4.1-6.8.1-10.2 0-5.2-.2-10.3-.2-15.5.1-10.5-.1-21-.1-31.6 0-4.7-.1-9.3-.2-14l-.1-3.6v-1.8c0-.5.1-1.1.2-1.6.5-2.1 2.2-3.8 4.3-4.4.5-.1.9-.2 1.4-.2h48.2c2.4 0 4.7 1.4 5.7 3.7.1.3.3.9.4 1.4 0 .3.1.5.1.7v.3l1.7-.3z"/><path transform="matrix(1 -.00524 .00524 1 -.48 .474)" class="st10" d="M83.6 45.7h13.1v91.8H83.6z"/><path class="st4" d="M96.5 45.1c-3.3 0-6.9.1-10.4.2-.6 0-1.3 0-3.1.1 0 2.4.1 6.3.1 10.8 0 4.4.1 9.5.1 14.5 0 10.2.1 20.5.1 25.5.1 13.7.1 27.7.2 41.7 4.6 0 9.3-.1 14-.1 0-5.5-.1-11-.1-16.5V81.9c0-4.3 0-9-.1-13.3 0-5-.1-12.8-.2-23H96v15.1c.1 18.3.2 35.3.3 53.6 0 7.5.1 15 .1 22.6H84.3c-.1-16.7-.2-33.5-.2-50.2-.1-13.6-.2-27.3-.3-40.6 4.3 0 8.5 0 12.6-.1l.1-.9z"/><path class="st10" d="M107.8 105.6l.1 23.9c0 .8-.7 1.5-1.5 1.5h-2c-.8 0-1.5-.7-1.5-1.5l-.1-23.9c0-.8.7-1.5 1.5-1.5h2c.8 0 1.5.7 1.5 1.5z"/><g><path class="st10" d="M107.7 83.7l.1 15.2c0 .8-.7 1.5-1.5 1.5h-2c-.8 0-1.5-.7-1.5-1.5l-.1-15.2c0-.8.7-1.5 1.5-1.5h2c.8 0 1.5.7 1.5 1.5z"/></g><g><path class="st10" d="M116.8 93.2l.2 36.4c0 .8-.7 1.5-1.5 1.5h-2c-.8 0-1.5-.7-1.5-1.5l-.2-36.4c0-.8.7-1.5 1.5-1.5h2c.8 0 1.5.7 1.5 1.5z"/></g></g></svg>