<?xml version="1.0" encoding="utf-8"?>
<!-- Generator: Adobe Illustrator 19.2.0, SVG Export Plug-In . SVG Version: 6.00 Build 0)  -->
<svg version="1.1" id="Layer_1" xmlns="http://www.w3.org/2000/svg" xmlns:xlink="http://www.w3.org/1999/xlink" x="0px" y="0px"
	 viewBox="0 0 161.3 150.7" style="enable-background:new 0 0 161.3 150.7;" xml:space="preserve">
<style type="text/css">
	.st0{fill:#F5E3B1;}
	.st1{fill:#F7EED7;}
	.st2{fill:#F2D9C7;}
	.st3{fill:#EBC19A;}
	.st4{fill:#5281B9;}
	.st5{fill:#E5F6D7;}
	.st6{fill:#CFE8B3;}
	.st7{fill:#F3EAD3;}
	.st8{fill:#C4E09F;}
	.st9{fill:#E6EBF7;}
	.st10{fill:#B7DCF8;}
</style>
<g>
	<g>
		<g>
			<circle class="st0" cx="54.5" cy="14.8" r="2.5"/>
		</g>
	</g>
	<g>
		<g>
			<path class="st0" d="M71.5,2.5l1.1,2c0.1,0.2,0.2,0.3,0.4,0.4l2,1.1c0.7,0.4,0.7,1.4,0,1.8l-2,1.1c-0.2,0.1-0.3,0.2-0.4,0.4
				l-1.1,2c-0.4,0.7-1.4,0.7-1.8,0l-1.1-2c-0.1-0.2-0.2-0.3-0.4-0.4l-2-1.1c-0.7-0.4-0.7-1.4,0-1.8l2-1.1c0.2-0.1,0.3-0.2,0.4-0.4
				l1.1-2C70.1,1.7,71.1,1.7,71.5,2.5z"/>
		</g>
	</g>
	<g>
		<g>
			<circle class="st0" cx="157" cy="57.3" r="2.5"/>
		</g>
	</g>
	<g>
		<g>
			<path class="st0" d="M152.5,68.9l1.1,2c0.1,0.2,0.2,0.3,0.4,0.4l2,1.1c0.7,0.4,0.7,1.4,0,1.8l-2,1.1c-0.2,0.1-0.3,0.2-0.4,0.4
				l-1.1,2c-0.4,0.7-1.4,0.7-1.8,0l-1.1-2c-0.1-0.2-0.2-0.3-0.4-0.4l-2-1.1c-0.7-0.4-0.7-1.4,0-1.8l2-1.1c0.2-0.1,0.3-0.2,0.4-0.4
				l1.1-2C151.1,68.2,152.1,68.2,152.5,68.9z"/>
		</g>
	</g>
	<g>
		<path class="st1" d="M141.9,40.1c-4.5-0.3-9.1-2.6-10.8-7.1c-1.2-3.1-1-6.6,0-9.7c0.8-2.7,1.1-5.1-0.3-7.6
			c-1.7-3.1-5.4-4.5-8.8-3.6c-2.2,0.6-3.7,2.3-5.6,3.4c-5.9,3.3-12.9,1.1-16.1-4.9c-1.2-2.3-1.9-4.6-4.5-5.8
			c-2.9-1.4-6.5-0.9-8.8,1.3c-2.2,2-2.2,4.5-2.8,7.2c-0.7,3.1-2.5,6.1-5.3,7.6c-3.1,1.7-7,1.7-10.4,0.8c-2.7-0.8-5.2-1.6-7.9-0.1
			c-3.3,1.8-4.9,5.9-3.6,9.4c0.7,1.9,2.2,3.4,3.2,5.2c1.5,3,1.7,5.9,0.9,8.6c-1,3-3.3,5.7-6.4,7.5c-1.9,1.1-3.7,1.8-5,3.8
			c-2,3.2-1.4,7.4,1.4,9.9c1.7,1.6,3.8,1.8,5.9,2.2c2.4,0.4,4.8,1.4,6.6,3c2.8,2.5,3.7,6.3,3.3,9.9c-0.2,2.4-1.5,4.7-1.6,7.1
			c-0.1,4.1,3,7.3,6.9,7.9c3.1,0.5,5-0.8,7.4-2.4c5.8-4,12.5-2.7,16.6,3c1,1.4,1.6,3.1,2.6,4.5c2.3,3.1,6.6,4.1,9.9,2.2
			c4.9-2.7,3.6-8.3,6.1-12.6c1.9-3.2,5.2-4.9,8.9-5.1c2.9-0.1,4.9,1,7.7,1.6c3.8,0.7,7.9-1.8,9-5.5c1-3.1-0.3-5.8-2.2-8.2
			c-4.2-5.3-3.2-12,1.9-16.2c1.3-1,2.6-1.7,4-2.5c3-1.6,4.9-4.8,4.4-8.3C148.2,43.2,145.3,40.5,141.9,40.1z"/>
	</g>
	<g>
		<path class="st2" d="M49,46.9l53.5,57.1c2.6,2.8,2.5,7.3-0.3,9.9l-35,32.8c-2.8,2.6-7.3,2.5-9.9-0.3L3.7,89.3
			c-2.6-2.8-2.5-7.3,0.3-9.9l35-32.8C41.9,43.9,46.3,44.1,49,46.9z"/>
	</g>
	<g>
		
			<rect x="39.3" y="57.2" transform="matrix(0.7298 -0.6836 0.6836 0.7298 -58.1073 59.2233)" class="st3" width="13.1" height="91.8"/>
	</g>
	<g>
		<path class="st3" d="M69.6,141c-0.7,0.3-1.4,0.6-2.1,1c-0.2-0.2-0.5-0.3-0.9-0.3c-0.2,0-0.5,0-0.7,0c-0.2,0-0.5,0.1-0.6,0.2
			c-0.9-0.4-1.9-0.7-2.9-1c-1.6-2.7-3.1-5.4-4.4-8.2c0.1-0.3,0.2-0.6,0-1c-1.8-5.2-3.7-10.4-5.7-15.6c-0.7-1.9-1.4-3.8-2.1-5.7
			c-0.1-0.3-0.4-0.6-0.6-0.7c-0.9-2.8-1.7-5.5-2.6-8.3c-0.1-0.2-0.2-0.4-0.3-0.6c-0.7-2.3-1.4-4.6-2.1-6.9c-0.1-0.4-0.4-0.7-0.7-0.9
			c-0.7-2.6-1.5-5.2-2.1-7.8c-0.2-0.6-0.6-0.9-1-1c-1-3.9-2.2-7.7-3.7-11.4c-0.1-0.4-0.4-0.6-0.7-0.8c-0.4-1.2-0.8-2.4-1.2-3.6
			c-0.1-0.2-0.1-0.3-0.2-0.4c-0.3-1-0.6-2-1.1-2.9c-0.4-1.2-0.7-2.4-1.1-3.5c0.6-1.7,1-3.5,1.6-5.2c0.4-0.3,0.7-0.7,1.1-1
			c0.1,0,0.1-0.1,0.2-0.1c0,0,0,0,0.1,0c0.1-0.1,0.2-0.1,0.3-0.2c0.8-0.3,1.6-0.6,2.4-1.1c0,0,0,0,0,0c0.1-0.1,0.2-0.1,0.4-0.2
			c0,0,0,0,0,0c0,0,0.1,0,0.1-0.1c0.6-0.3,1.3-0.6,1.9-0.9c0.6-0.3,1.2-0.6,1.8-0.8c0.2,0,0.3,0,0.5,0c1.1-0.2,2.2-0.4,3.2-0.7
			c0.3-0.1,1-0.5,1.4-0.7c0.4,0,0.8,0.1,1.2,0.1c1.5,0.1,2-2,0.8-2.8c-0.4-0.3-0.8-0.4-1.1-0.4c-0.1-0.1-0.1-0.2-0.2-0.3
			c-1.3-1.4-2.8-2.1-4.7-2.2c-0.4,0-0.8,0.2-1,0.4c-1.8-0.2-3.4,0.3-3.9,2.2c-0.1,0-0.1,0.1-0.2,0.1c-0.9,0.4-1.7,0.8-2.6,1.4
			c-0.6,0.4-0.8,1-0.7,1.5c-0.2,0.3-0.5,0.6-0.7,0.9c0,0,0,0,0,0.1c-1.6,0.8-3,1.7-4.1,3.2c-0.1,0.1-0.1,0.2-0.2,0.3
			C30.1,55,30.1,55,30,55c-0.6-0.3-1.4-0.2-2,0.5c-1.3,1.8-0.8,4.9-0.6,6.9c0.3,2.8,1,5.5,1.9,8.1c0.1,0.3,0.3,0.6,0.6,0.7
			c6.5,17.3,13.2,34.4,20.3,51.5c1.1,3.3,2.3,6.7,3.5,10c0,0,0,0.1,0,0.1c0,0.2,0.1,0.4,0.2,0.5c1,2.6,1.9,5.2,3,7.8
			c0.4,1.3,0.9,2.6,1.5,3.9c0.1,0.1,0.1,0.2,0.2,0.3c0.3,1,0.9,1.8,1.7,2.6c0.4,0.3,0.8,0.4,1.2,0.4c0.3,0.3,0.7,0.5,1.1,0.4
			c1.6-0.1,3-1,3.6-2.3c1.4-0.9,2.7-1.9,4.2-2.5C72.2,143.2,71.4,140.3,69.6,141z"/>
	</g>
	<g>
		<g>
			<path class="st4" d="M49.7,46.2c-1.6-1.8-4.3-2.9-7.1-2.5c-1.4,0.2-2.8,0.8-3.9,1.8c-1.1,0.9-1.9,1.8-3,2.7
				c-3.9,3.6-8,7.4-11.7,11.1c-4,3.9-8,7.7-12,11.5c-2,1.9-4,3.8-6,5.7l-1.5,1.4c-0.5,0.5-1,0.9-1.5,1.5c-1,1.2-1.7,2.7-1.8,4.2
				c-0.2,2.1,0.4,4.3,1.8,5.9c1.4,1.5,2.7,2.8,4,4.2c2.7,2.8,5.3,5.6,7.8,8.4c6.8,7.6,13,13.5,19.3,20.5c4.3,4.7,8.8,9,13.1,13.7
				c2.2,2.5,4.5,5,6.7,7.4l1.7,1.9c0.6,0.6,1.1,1.2,1.8,1.9c1.4,1.2,3.2,1.9,5.1,1.9c1.2,0,2.5-0.3,3.5-0.9c0.5-0.3,1.1-0.6,1.5-1
				c0.4-0.4,0.8-0.8,1.2-1.2l4.8-4.6c3.2-3.1,6.4-6.1,9.7-9.2c2.3-2.1,4.4-4.3,6.7-6.4c1-0.9,4.9-4.4,9.1-8.3c1.1-1,2.2-2,3.2-2.9
				c0.5-0.5,1.1-1.1,1.5-1.7c0.5-0.6,0.8-1.3,1-2c0.4-1.4,0.4-2.8,0.1-4c-0.3-1.2-0.9-2.2-1.4-2.9c-0.5-0.6-1-1.1-1.5-1.6l-1.5-1.6
				c-1-1-2-2.1-3-3.2c-1.7-2-10.2-10.9-12.7-13.7C79.2,78,73.3,71.9,67.7,65.8c-3.1-3.4-6.2-6.8-9.3-10.3c-1-1.1-2.2-2.3-3.2-3.4
				C54.1,50.8,52.2,48.8,49.7,46.2l-1.3,1.2c1.8,1.9,2.8,3,3.6,3.9c4.5,4.6,8.5,9.1,12.9,13.7c7,7.3,13.9,15,20.9,22.4
				c2.8,3,5.6,6,8.5,9l4.2,4.5l2.1,2.3l1.1,1.1c0.3,0.4,0.6,0.7,0.8,1.1c1,1.5,1.2,3.5,0.6,5.1c-0.3,0.8-0.8,1.6-1.4,2.2
				c-0.6,0.6-1.5,1.4-2.2,2.1c-3,2.8-6.1,5.6-9.1,8.4c-4.3,4-8.6,8.1-12.8,12.2l-6.4,6.2l-3.2,3.1c-0.5,0.5-1.1,1.1-1.6,1.5
				c-0.5,0.4-1.1,0.8-1.7,1c-1.4,0.6-3,0.6-4.4,0.1c-0.7-0.3-1.3-0.6-1.9-1.1c-0.5-0.5-1.1-1.2-1.7-1.8c-2.3-2.5-4.6-5-6.8-7.5
				c-3.5-3.8-7.2-7.4-10.6-11.2c-7.1-7.8-14.3-15.4-21.6-23.1c-3.2-3.4-6.4-6.8-9.7-10.2l-2.5-2.6l-1.2-1.3
				c-0.4-0.4-0.7-0.8-0.9-1.3c-1-1.9-1-4.3,0.2-6.2c0.2-0.4,0.6-0.8,0.9-1.1c0.3-0.4,0.8-0.7,1.1-1.1l2.3-2.2
				c1.6-1.5,3.1-2.9,4.7-4.4c3.1-2.9,6.3-5.8,9.4-8.8c4-3.8,7.9-7.3,11.8-10.9c1.9-1.8,3.9-3.6,5.9-5.4c1.7-1.6,4.4-2.1,6.7-1.2
				c0.3,0.1,0.8,0.4,1.3,0.7c0.2,0.2,0.4,0.3,0.6,0.5c0.1,0.1,0.2,0.2,0.2,0.2L49.7,46.2z"/>
		</g>
	</g>
	<g>
		<g>
			<path class="st4" d="M18.9,64.7c-2.4,2.2-5,4.8-7.5,7.2c-0.4,0.4-0.9,0.9-2.2,2.1c1.7,1.8,4.3,4.5,7.4,7.8c3,3.2,6.5,6.9,10,10.6
				c6.9,7.4,13.9,15,17.4,18.7c9.4,10,18.9,20.3,28.5,30.5c3.4-3.2,6.8-6.4,10.2-9.5c-3.8-4-7.5-8.1-11.3-12
				c-9-9.7-17.9-19.2-26.8-28.8c-2.9-3.1-6.2-6.6-9.1-9.7c-3.4-3.7-8.8-9.3-15.8-16.8l-0.8,0.7c5,5.4,8,8.5,10.3,11
				c12.5,13.4,24.2,25.8,36.6,39.1c5.1,5.5,10.3,11,15.5,16.5c-2.9,2.7-5.9,5.5-8.8,8.2c-11.4-12.2-22.9-24.5-34.3-36.6
				C29,93.9,19.5,83.8,10.4,74.1c3.2-3,6.2-5.8,9.2-8.6L18.9,64.7z"/>
		</g>
	</g>
	<g>
		<path class="st3" d="M68.3,101.4l16.4,17.5c0.6,0.6,0.5,1.5-0.1,2.1l-1.5,1.4c-0.6,0.6-1.5,0.5-2.1-0.1l-16.4-17.5
			c-0.6-0.6-0.5-1.5,0.1-2.1l1.5-1.4C66.8,100.8,67.8,100.8,68.3,101.4z"/>
	</g>
	<g>
		<path class="st3" d="M53.3,85.4l10.4,11.1c0.6,0.6,0.5,1.5-0.1,2.1l-1.5,1.4c-0.6,0.6-1.5,0.5-2.1-0.1L49.7,88.9
			c-0.6-0.6-0.5-1.5,0.1-2.1l1.5-1.4C51.8,84.8,52.8,84.8,53.3,85.4z"/>
	</g>
	<g>
		<path class="st3" d="M66.5,86.2l24.9,26.5c0.6,0.6,0.5,1.5-0.1,2.1l-1.5,1.4c-0.6,0.6-1.5,0.5-2.1-0.1L62.8,89.6
			c-0.6-0.6-0.5-1.5,0.1-2.1l1.5-1.4C65,85.6,65.9,85.6,66.5,86.2z"/>
	</g>
	<g>
		<path class="st5" d="M92.2,42.9l26.1,73.8c1.3,3.6-0.6,7.6-4.3,8.9l-45.2,16c-3.6,1.3-7.6-0.6-8.9-4.3L33.8,63.5
			c-1.3-3.6,0.6-7.6,4.3-8.9l45.2-16C86.9,37.3,90.9,39.2,92.2,42.9z"/>
	</g>
	<g>
		<path class="st6" d="M88.1,100.6l8,22.6c0.3,0.8-0.1,1.6-0.9,1.9l-1.9,0.7c-0.8,0.3-1.6-0.1-1.9-0.9l-8-22.6
			c-0.3-0.8,0.1-1.6,0.9-1.9l1.9-0.7C86.9,99.4,87.8,99.8,88.1,100.6z"/>
		<path class="st7" d="M92.7,126c-0.2,0-0.5-0.1-0.7-0.2c-0.4-0.2-0.7-0.5-0.8-0.9l-8-22.6c-0.3-0.9,0.1-1.8,1-2.1l1.9-0.7
			c0.4-0.1,0.9-0.1,1.2,0.1c0.4,0.2,0.7,0.5,0.8,0.9l8,22.6c0.3,0.9-0.1,1.8-1,2.1l-1.9,0.7C93.1,125.9,92.9,126,92.7,126z
			 M86.7,99.7c-0.1,0-0.3,0-0.4,0.1l-1.9,0.7c-0.7,0.2-1.1,1-0.8,1.7l8,22.6c0.2,0.7,1,1.1,1.7,0.8l1.9-0.7c0.7-0.2,1.1-1,0.8-1.7
			l-8-22.6c-0.1-0.3-0.4-0.6-0.7-0.8C87.1,99.8,86.9,99.7,86.7,99.7z"/>
	</g>
	<g>
		
			<rect x="60.3" y="47.2" transform="matrix(0.9427 -0.3336 0.3336 0.9427 -27.233 27.6281)" class="st6" width="13.1" height="91.8"/>
	</g>
	<g>
		<path class="st8" d="M91.9,42.6c-0.6-0.7-1.2-1.3-1.8-2c-0.3-0.3-0.6-0.4-0.9-0.5c-0.7-0.5-1.5-1-2.4-1.3c-0.3-0.1-0.7-0.1-1,0.1
			c-2.7-0.4-6.3,1-8.5,2.2c0,0-0.1,0.1-0.1,0.1c-0.1,0.1-0.3,0.1-0.4,0.2c0,0,0,0,0,0c-0.8,0.1-1.6,0.3-2.3,0.4
			c-1.9,0.3-3.6,0.8-5.3,1.7c0,0,0,0,0,0c-2,0.2-3.3,0.6-4.9,1.8c0,0,0,0.1-0.1,0.1c-0.7-0.9-2.6-0.6-2.7,0.9
			c-1.1,18.9-0.4,37.7,1.8,56.5c-0.1,9.3,0.3,18.6,1.2,27.9c0,0.1,0,0.3,0.1,0.4c0.4,4.5,4.1,11.1,9.3,8.5c1.2-0.6,0.9-2.5-0.4-2.7
			c-3.7-0.9-4-3-4.3-5.3c0-0.4,0-0.8-0.1-1.2c-0.1-2.8-0.2-5.5-0.3-8.3c0.3-4.5,0.2-9-0.4-13.5c0.1-3.1,0.1-6.3,0-9.4
			c0-1.7,0-3.4,0-5.1c0.2-0.2,0.4-0.5,0.4-0.9c-0.2-5-0.3-10.1-0.6-15.1c0-3.4,0-6.8-0.1-10.2c0-0.2,0-0.3-0.1-0.5
			c0.2-5.2,0.5-10.4,0.9-15.6c0-0.3,0-0.6-0.2-0.8c0.3-0.8,0.6-1.6,1-2.4c1.1-0.8,2.2-1.6,3.4-2.3c0.4-0.2,0.6-0.5,0.7-0.9
			c0.1,0,0.2-0.1,0.3-0.1c0.4,0,0.9,0,1.3,0c0.1,0,0.3,0,0.4,0c0.9-0.1,1.8-0.1,2.7-0.2c0,0,0,0,0,0c0,0,0,0,0,0
			c1.2-0.1,2.4-0.1,3.5-0.2c0.3,0.3,0.7,0.4,1.3,0.3c1-0.2,2-0.3,2.9-0.3c1.1,0,2.2,0.3,3.2,0.7c0.4,0.1,0.8,0.1,1.1-0.1
			c0.6,0,1.1-0.3,1.4-0.9C92.4,44.2,92.5,43.2,91.9,42.6z"/>
	</g>
	<g>
		<g>
			<path class="st4" d="M93.1,42.5c-0.7-2.2-2.8-4.4-5.5-5.1c-1.4-0.4-2.9-0.4-4.3,0c-1.3,0.4-2.5,0.8-3.8,1.3
				c-5,1.7-10.3,3.6-15.2,5.5c-5.2,2-10.4,3.9-15.6,5.7c-2.6,0.9-5.2,1.8-7.8,2.8l-2,0.7c-0.7,0.2-1.3,0.4-2,0.8
				c-1.4,0.7-2.6,1.8-3.4,3.1c-1.1,1.8-1.3,4.1-0.7,6.1c0.7,1.9,1.3,3.6,2,5.4c1.3,3.6,2.6,7.2,3.8,10.8c3.2,9.7,6.5,17.5,9.5,26.5
				c2,6,4.4,11.8,6.5,17.8c1.1,3.2,2.1,6.3,3.2,9.5l0.8,2.4c0.3,0.8,0.5,1.6,0.9,2.4c0.8,1.7,2.2,3,3.9,3.8c1.1,0.5,2.4,0.7,3.6,0.6
				c0.6,0,1.2-0.2,1.8-0.4c0.6-0.2,1.1-0.4,1.6-0.6l6.2-2.3c4.2-1.5,8.3-3.1,12.5-4.5c2.9-1,5.8-2.2,8.7-3.2c1.2-0.4,6.2-2.1,11.7-4
				c1.4-0.5,2.8-0.9,4.1-1.4c0.7-0.2,1.5-0.5,2.1-0.9c0.7-0.4,1.2-0.9,1.7-1.5c1-1.1,1.5-2.4,1.7-3.7c0.2-1.2,0.1-2.3-0.1-3.2
				c-0.2-0.8-0.5-1.4-0.8-2.1l-0.8-2c-0.5-1.4-1-2.7-1.4-4.1c-0.8-2.5-5-14-6.2-17.7c-2.6-7.8-5.5-15.7-8.2-23.4
				c-1.5-4.4-3-8.7-4.4-13.2c-0.5-1.4-1.1-3-1.6-4.4C95.3,48.5,94.4,45.9,93.1,42.5l-1.7,0.6c0.9,2.4,1.3,3.9,1.8,5
				c2.3,6,4.1,11.7,6.3,17.8c3.5,9.5,6.7,19.4,10.2,28.9c1.4,3.9,2.8,7.8,4.1,11.7l2,5.8l1,2.9l0.5,1.5c0.2,0.5,0.3,0.9,0.3,1.3
				c0.3,1.8-0.3,3.6-1.5,5c-0.6,0.7-1.3,1.2-2.2,1.5c-0.9,0.3-1.9,0.7-2.9,1c-3.9,1.3-7.8,2.7-11.7,4c-5.6,1.9-11.1,4-16.7,6.1
				l-8.3,3.1l-4.2,1.5c-0.7,0.2-1.4,0.5-2.1,0.7c-0.6,0.2-1.3,0.3-1.9,0.2c-1.5-0.1-3-0.7-4-1.7c-0.5-0.5-1-1.1-1.3-1.8
				c-0.3-0.6-0.5-1.5-0.8-2.3c-1.1-3.2-2.2-6.4-3.2-9.6c-1.7-4.9-3.6-9.7-5.2-14.6c-3.4-10-7-19.8-10.5-29.8
				c-1.6-4.4-3.1-8.8-4.8-13.2l-1.3-3.4l-0.6-1.7c-0.2-0.5-0.3-1-0.3-1.6C34,59.5,35,57.2,36.8,56c0.4-0.3,0.8-0.5,1.3-0.7
				c0.5-0.2,1-0.4,1.5-0.6l3-1.1c2-0.7,4-1.4,6.1-2.1c4-1.4,8.1-2.8,12.1-4.3C66,45.4,71,43.7,76,42c2.5-0.9,5-1.7,7.5-2.6
				c2.2-0.8,4.9-0.2,6.6,1.6c0.2,0.2,0.6,0.7,0.9,1.2c0.1,0.2,0.3,0.5,0.3,0.7c0.1,0.2,0.1,0.3,0.1,0.3L93.1,42.5z"/>
		</g>
	</g>
	<g>
		<g>
			<path class="st4" d="M57.5,47.1c-3.1,1.1-6.5,2.4-9.8,3.6c-0.5,0.2-1.2,0.4-2.9,1.1c0.8,2.3,2.1,5.9,3.7,10.2
				c1.5,4.1,3.2,8.9,4.9,13.7c3.4,9.6,6.8,19.3,8.5,24.1c4.6,13,9.2,26.2,13.9,39.4c4.4-1.5,8.8-3.1,13.2-4.7
				c-1.8-5.2-3.7-10.4-5.5-15.5c-4.3-12.4-8.6-24.8-13-37.2c-1.4-4-3-8.5-4.4-12.6c-1.7-4.7-4.3-12.1-7.7-21.7l-1,0.3
				c2.4,6.9,3.9,11,5,14.2c6.1,17.3,11.8,33.3,17.9,50.5c2.5,7.1,5,14.2,7.6,21.3c-3.8,1.3-7.6,2.7-11.4,4
				c-5.6-15.8-11.1-31.6-16.7-47.3C55.1,77.8,50.4,64.9,46,52.3c4.1-1.4,8-2.8,11.9-4.2L57.5,47.1z"/>
		</g>
	</g>
	<g>
		<path class="st6" d="M80.8,79.9l5.1,14.3c0.3,0.8-0.1,1.6-0.9,1.9L83,96.8c-0.8,0.3-1.6-0.1-1.9-0.9L76,81.6
			c-0.3-0.8,0.1-1.6,0.9-1.9l1.9-0.7C79.6,78.7,80.5,79.1,80.8,79.9z"/>
		<path class="st7" d="M82.5,97c-0.2,0-0.5-0.1-0.7-0.2c-0.4-0.2-0.7-0.5-0.8-0.9l-5.1-14.3c-0.3-0.9,0.1-1.8,1-2.1l1.9-0.7
			c0.9-0.3,1.8,0.1,2.1,1L86,94.2c0.1,0.4,0.1,0.9-0.1,1.2c-0.2,0.4-0.5,0.7-0.9,0.8l-1.9,0.7C82.9,97,82.7,97,82.5,97z M79.3,79
			c-0.1,0-0.3,0-0.4,0.1L77,79.8c-0.7,0.2-1.1,1-0.8,1.7l5.1,14.3c0.1,0.3,0.4,0.6,0.7,0.8c0.3,0.2,0.7,0.2,1,0.1l1.9-0.7
			c0.3-0.1,0.6-0.4,0.8-0.7c0.2-0.3,0.2-0.7,0.1-1l-5.1-14.3C80.4,79.4,79.9,79,79.3,79z"/>
	</g>
	<g>
		<path class="st6" d="M92.5,85.8l12.1,34.3c0.3,0.8-0.1,1.6-0.9,1.9l-1.9,0.7c-0.8,0.3-1.6-0.1-1.9-0.9L87.8,87.5
			c-0.3-0.8,0.1-1.6,0.9-1.9l1.9-0.7C91.4,84.7,92.2,85.1,92.5,85.8z"/>
		<path class="st7" d="M101.3,122.9c-0.2,0-0.5-0.1-0.7-0.2c-0.4-0.2-0.7-0.5-0.8-0.9L87.6,87.6c-0.3-0.9,0.1-1.8,1-2.1l1.9-0.7
			c0.4-0.1,0.9-0.1,1.2,0.1c0.4,0.2,0.7,0.5,0.8,0.9l12.1,34.3c0.3,0.9-0.1,1.8-1,2.1l-1.9,0.7C101.7,122.9,101.5,122.9,101.3,122.9
			z M91.1,85c-0.1,0-0.3,0-0.4,0.1l-1.9,0.7c-0.7,0.2-1.1,1-0.8,1.7l12.1,34.3c0.1,0.3,0.4,0.6,0.7,0.8c0.3,0.2,0.7,0.2,1,0.1
			l1.9-0.7c0.7-0.2,1.1-1,0.8-1.7L92.3,85.9c-0.1-0.3-0.4-0.6-0.7-0.8C91.5,85.1,91.3,85,91.1,85z"/>
	</g>
	<g>
		<g>
			<g>
				<path class="st9" d="M130.7,52.5l0.4,78.3c0,3.8-3.1,7-7,7l-48,0.3c-3.8,0-7-3.1-7-7l-0.4-78.3c0-3.8,3.1-7,7-7l48-0.3
					C127.5,45.5,130.6,48.6,130.7,52.5z"/>
			</g>
			<g>
				<g>
					<path class="st4" d="M131.6,52.5c0-2.4-1.2-5-3.5-6.7c-1.2-0.8-2.6-1.3-4.1-1.4c-1.4,0-2.6,0-4,0c-5.3,0-10.9,0-16.1,0.2
						c-5.6,0.2-11.1,0.2-16.6,0.3c-2.8,0-5.5,0-8.3,0l-2.1,0c-0.7,0-1.4,0-2.2,0.1c-1.5,0.2-3,0.8-4.2,1.9c-1.6,1.4-2.6,3.5-2.6,5.6
						c0,2,0.1,3.9,0.1,5.8c0.1,3.8,0.1,7.7,0.1,11.5c-0.2,10.2,0.4,18.7,0.2,28.2c-0.1,6.4,0.3,12.6,0.3,19c0,3.3-0.1,6.7-0.1,10
						l0,2.5c0,0.8-0.1,1.6,0,2.6c0.2,1.8,1.1,3.6,2.4,4.8c0.9,0.8,2,1.5,3.2,1.8c0.6,0.2,1.2,0.2,1.8,0.3c0.6,0,1.1,0,1.7,0l6.7-0.1
						c4.4-0.1,8.9-0.2,13.3-0.1c3.1,0,6.2-0.2,9.3-0.2c1.3,0,6.6,0.1,12.4,0.1c1.4,0,2.9,0,4.4,0c0.7,0,1.5,0,2.3-0.2
						c0.8-0.2,1.5-0.5,2.1-0.8c1.3-0.7,2.2-1.8,2.8-2.9c0.6-1.1,0.9-2.2,0.9-3.1c0-0.8,0-1.5,0-2.2l-0.1-2.2c0-1.5,0-2.9,0-4.4
						c0.1-2.6-0.1-14.9,0-18.7c0.1-8.2,0-16.6,0-24.8c0-4.6,0.1-9.2,0.2-13.9c0-1.5,0-3.2,0-4.7C131.7,58.8,131.7,56.1,131.6,52.5
						l-1.8,0c0,2.6,0,4.1,0,5.3c0.2,6.4,0,12.4,0.1,18.8c0.2,10.2,0,20.5,0.1,30.7c0,4.1,0.1,8.2,0.1,12.4l0,6.2l0,3.1l0,1.5
						c0,0.5,0,0.9-0.1,1.4c-0.3,1.8-1.5,3.3-3.1,4.2c-0.8,0.4-1.7,0.7-2.5,0.7c-0.9,0-2,0-3,0c-4.1,0-8.3,0-12.4,0
						c-5.9,0-11.8,0.1-17.7,0.3l-8.9,0.2l-4.4,0.1c-0.7,0-1.5,0-2.2,0c-0.7,0-1.3-0.2-1.9-0.4c-1.4-0.5-2.6-1.6-3.2-2.9
						c-0.3-0.7-0.6-1.4-0.6-2.1c-0.1-0.7,0-1.6,0-2.4c0-3.4,0.1-6.8,0.1-10.2c0-5.2-0.2-10.3-0.2-15.5c0.1-10.5-0.1-21-0.1-31.6
						c0-4.7-0.1-9.3-0.2-14l-0.1-3.6l0-1.8c0-0.5,0.1-1.1,0.2-1.6c0.5-2.1,2.2-3.8,4.3-4.4c0.5-0.1,0.9-0.2,1.4-0.2
						c0.5,0,1.1,0,1.6,0c1.1,0,2.1,0,3.2,0c2.1,0,4.3,0,6.4,0c4.3,0,8.6,0,12.9,0c5.5,0,10.8,0,16.1,0c2.6,0,5.3,0,8,0
						c2.4,0,4.7,1.4,5.7,3.7c0.1,0.3,0.3,0.9,0.4,1.4c0,0.3,0.1,0.5,0.1,0.7c0,0.2,0,0.3,0,0.3L131.6,52.5z"/>
				</g>
			</g>
		</g>
		<g>
			<g>
				
					<rect x="83.6" y="45.7" transform="matrix(1 -5.244548e-03 5.244548e-03 1 -0.4792 0.4742)" class="st10" width="13.1" height="91.8"/>
			</g>
			<g>
				<g>
					<path class="st4" d="M96.5,45.1c-3.3,0-6.9,0.1-10.4,0.2c-0.6,0-1.3,0-3.1,0.1c0,2.4,0.1,6.3,0.1,10.8c0,4.4,0.1,9.5,0.1,14.5
						c0,10.2,0.1,20.5,0.1,25.5c0.1,13.7,0.1,27.7,0.2,41.7c4.6,0,9.3-0.1,14-0.1c0-5.5-0.1-11-0.1-16.5c0-13.2,0-26.2,0-39.4
						c0-4.3,0-9-0.1-13.3c0-5-0.1-12.8-0.2-23l-1.1,0C96,53,96,57.3,96,60.7c0.1,18.3,0.2,35.3,0.3,53.6c0,7.5,0.1,15,0.1,22.6
						c-4,0-8,0-12.1,0c-0.1-16.7-0.2-33.5-0.2-50.2c-0.1-13.6-0.2-27.3-0.3-40.6c4.3,0,8.5,0,12.6-0.1L96.5,45.1z"/>
				</g>
			</g>
		</g>
		<g>
			<path class="st10" d="M107.8,105.6l0.1,23.9c0,0.8-0.7,1.5-1.5,1.5l-2,0c-0.8,0-1.5-0.7-1.5-1.5l-0.1-23.9c0-0.8,0.7-1.5,1.5-1.5
				l2,0C107.1,104.1,107.8,104.8,107.8,105.6z"/>
		</g>
		<g>
			<path class="st10" d="M107.7,83.7l0.1,15.2c0,0.8-0.7,1.5-1.5,1.5l-2,0c-0.8,0-1.5-0.7-1.5-1.5l-0.1-15.2c0-0.8,0.7-1.5,1.5-1.5
				l2,0C107,82.2,107.7,82.9,107.7,83.7z"/>
		</g>
		<g>
			<path class="st10" d="M116.8,93.2l0.2,36.4c0,0.8-0.7,1.5-1.5,1.5l-2,0c-0.8,0-1.5-0.7-1.5-1.5l-0.2-36.4c0-0.8,0.7-1.5,1.5-1.5
				l2,0C116.1,91.7,116.8,92.4,116.8,93.2z"/>
		</g>
	</g>
</g>
</svg>
