<svg width="50" height="50" viewBox="0 0 50 50" xmlns="http://www.w3.org/2000/svg"><title>credit-card</title><g fill="none" fill-rule="evenodd"><g fill-rule="nonzero"><path d="M9 21.89l-3.145 6.817v.082l-1.29 2.875-.081.082c-.645 1.315-.08 2.875 1.21 3.533l14.838 7.146c1.29.657 2.823.082 3.468-1.232l.08-.082 1.291-2.875v-.082l3.145-6.818c.645-1.315.08-2.875-1.21-3.532l-14.838-7.147c-1.29-.575-2.823-.082-3.468 1.232z" fill="#63C78A"/><path fill="#235EA1" d="M4.295 31.605l1.341-2.844 19.912 9.389-1.34 2.844z"/><path d="M24.565 34.786c-.162.328-.484.493-.807.328l-5.564-2.71c-.323-.165-.404-.493-.323-.822.161-.328.484-.41.806-.328l5.565 2.71c.323.165.403.493.323.822zM17.065 31.254c-.162.328-.484.492-.807.328l-1.452-.74c-.322-.163-.403-.492-.322-.82.161-.33.484-.411.806-.33l1.452.74c.403.164.484.493.323.822z" fill="#FFF"/><g><path d="M23.341 11.484l-6.424 3.548h-.08l-2.696 1.452-.079.08c-1.269.646-1.665 2.259-1.031 3.468l7.693 14.516c.635 1.29 2.22 1.694 3.41 1.049l.08-.08 2.696-1.452h.08l6.424-3.468c1.269-.645 1.665-2.258 1.03-3.468l-7.692-14.516c-.635-1.29-2.221-1.774-3.41-1.13z" fill="#FFB36D"/><path fill="#235EA1" d="M14.121 16.481l2.724-1.465L27.083 34.05l-2.724 1.465z"/><path d="M28.259 30.92c-.318.16-.635.08-.793-.243l-2.856-5.403c-.158-.322-.079-.645.238-.806.318-.162.635-.08.793.242l2.856 5.403c.158.322 0 .645-.238.806zM24.372 23.661c-.317.162-.634.08-.793-.242l-.713-1.451c-.16-.323-.08-.645.237-.807.318-.161.635-.08.794.242l.713 1.452c.159.322.08.645-.238.806z" fill="#FFF"/></g><g><path d="M41.843 9H31.158c-1.458 0-2.591 1.14-2.591 2.607V28.23c0 1.466 1.133 2.607 2.59 2.607h10.686c1.457 0 2.59-1.14 2.59-2.607V11.607A2.617 2.617 0 0 0 41.843 9z" fill="#FD6281"/><path fill="#235EA1" d="M31.238 9h3.157v21.837h-3.157z"/><path d="M36.986 28.637c-.324 0-.648-.244-.648-.57v-6.274c0-.326.243-.57.567-.57.324 0 .566.244.566.57v6.274c.081.244-.161.57-.485.57zM37.067 20.163c-.324 0-.648-.244-.648-.57v-1.63c0-.326.243-.57.567-.57.324 0 .566.244.566.57v1.63c.081.326-.162.57-.485.57z" fill="#FFF"/></g></g><path d="M0 0h50v50H0z"/></g></svg>